<svg xmlns="http://www.w3.org/2000/svg" version="1.1" xmlns:xlink="http://www.w3.org/1999/xlink" xmlns:svgjs="http://svgjs.dev/svgjs" width="2000" height="1247" viewBox="0 0 2000 1247"><g transform="matrix(1,0,0,1,-1.2121212121212466,0.504858299595071)"><svg viewBox="0 0 396 247" data-background-color="#000000" preserveAspectRatio="xMidYMid meet" height="1247" width="2000" xmlns="http://www.w3.org/2000/svg" xmlns:xlink="http://www.w3.org/1999/xlink"><g id="tight-bounds" transform="matrix(1,0,0,1,0.2400000000000091,-0.09999999999999432)"><svg viewBox="0 0 395.52 247.2" height="247.2" width="395.52"><rect width="395.52" height="247.2" fill="url(#67a49532-b6e6-4eda-b3f6-d1f57d05a5fe)" mask="url(#94071054-5482-493c-9d53-82e345f99b5b)" data-fill-palette-color="tertiary"></rect><g><svg></svg></g><g><svg viewBox="0 0 395.52 247.2" height="247.2" width="395.52"><g transform="matrix(1,0,0,1,92.86290138248849,47.215199999999996)"><svg viewBox="0 0 209.794197235023 152.7696" height="152.7696" width="209.794197235023"><g><svg viewBox="0 0 209.794197235023 152.7696" height="152.7696" width="209.794197235023"><g><svg viewBox="0 0 209.794197235023 152.7696" height="152.7696" width="209.794197235023"><g><svg viewBox="0 0 209.794197235023 152.7696" height="152.7696" width="209.794197235023"><g id="textblocktransform"><svg viewBox="0 0 209.794197235023 152.7696" height="152.7696" width="209.794197235023" id="textblock"><g><svg viewBox="0 0 209.794197235023 152.7696" height="152.7696" width="209.794197235023"><g transform="matrix(1,0,0,1,0,0)"><svg width="209.794197235023" viewBox="4.65 -32.1 44.7 32.550000000000004" height="152.7696" data-palette-color="url(#2be74abb-c3f9-46d4-83b9-3d84f82df0d8)"></svg></g></svg></g></svg></g></svg></g></svg></g></svg></g></svg></g><g><path d="M0 123.6c0-68.262 55.338-123.6 123.6-123.6 30.402 0 58.24 10.976 79.768 29.183l-11.147 0c-19.26-14.022-42.974-22.294-68.621-22.295-64.458 0-116.712 52.254-116.712 116.712 0 64.458 52.254 116.712 116.712 116.712 25.647 0 49.361-8.272 68.621-22.295l11.147 0c-21.528 18.206-49.366 29.183-79.768 29.183-68.262 0-123.6-55.338-123.6-123.6z" fill="url(#67a49532-b6e6-4eda-b3f6-d1f57d05a5fe)" stroke="transparent" data-fill-palette-color="tertiary"></path></g></svg></g><defs></defs><mask id="75147ea2-f0a1-4062-a5e5-30809f03d660"><g id="SvgjsG1079"><svg viewBox="0 0 395.52 247.2" height="247.2" width="395.52"><g><svg></svg></g><g><svg viewBox="0 0 395.52 247.2" height="247.2" width="395.52"><g transform="matrix(1,0,0,1,92.86290138248849,47.215199999999996)"><svg viewBox="0 0 209.794197235023 152.7696" height="152.7696" width="209.794197235023"><g><svg viewBox="0 0 209.794197235023 152.7696" height="152.7696" width="209.794197235023"><g><svg viewBox="0 0 209.794197235023 152.7696" height="152.7696" width="209.794197235023"><g><svg viewBox="0 0 209.794197235023 152.7696" height="152.7696" width="209.794197235023"><g id="SvgjsG1078"><svg viewBox="0 0 209.794197235023 152.7696" height="152.7696" width="209.794197235023" id="SvgjsSvg1077"><g><svg viewBox="0 0 209.794197235023 152.7696" height="152.7696" width="209.794197235023"><g transform="matrix(1,0,0,1,0,0)"><svg width="209.794197235023" viewBox="4.65 -32.1 44.7 32.550000000000004" height="152.7696" data-palette-color="url(#2be74abb-c3f9-46d4-83b9-3d84f82df0d8)"><path d="M17.7-12.95Q21-7.5 26-0.95L26-0.95 25.95-0.45Q24.15 0.25 22.25 0.45L22.25 0.45 21.7 0.1Q17.6-6.05 14.35-11.9L14.35-11.9 8.5-11.9 8.5-10 8.7 0 4.65 0 4.9-9.65 4.65-32.05 14.45-32.1Q19.15-32.1 21.73-29.73 24.3-27.35 24.3-22.95L24.3-22.95Q24.3-19.65 22.58-17.03 20.85-14.4 17.7-12.95L17.7-12.95ZM8.7-28.65L8.55-15.3 14.55-15.15Q20.15-16.75 20.15-22.6L20.15-22.6Q20.15-25.65 18.5-27.18 16.85-28.7 13.55-28.8L13.55-28.8 8.7-28.65ZM49.05-32.05L49.35-31.65 49.05-28.55 43.45-28.85 40.2-28.85 40.05-10 40.2 0 36.15 0 36.45-9.65 36.2-28.85 32.95-28.85 27.25-28.55 27-28.95 27.3-32.05 49.05-32.05Z" opacity="1" transform="matrix(1,0,0,1,0,0)" fill="white" class="wordmark-text-0" id="SvgjsPath1076"></path></svg></g></svg></g></svg></g></svg></g></svg></g></svg></g></svg></g><g><path d="M0 123.6c0-68.262 55.338-123.6 123.6-123.6 30.402 0 58.24 10.976 79.768 29.183l-11.147 0c-19.26-14.022-42.974-22.294-68.621-22.295-64.458 0-116.712 52.254-116.712 116.712 0 64.458 52.254 116.712 116.712 116.712 25.647 0 49.361-8.272 68.621-22.295l11.147 0c-21.528 18.206-49.366 29.183-79.768 29.183-68.262 0-123.6-55.338-123.6-123.6z" fill="black" stroke="transparent"></path></g></svg></g><defs><mask></mask></defs></svg><rect width="395.52" height="247.2" fill="black" stroke="none" visibility="hidden"></rect></g></mask><linearGradient x1="0.054" x2="0.941" y1="0.5" y2="0.5" id="2be74abb-c3f9-46d4-83b9-3d84f82df0d8"><stop stop-color="#0f3054" offset="0"></stop><stop stop-color="#3b8dcb" offset="0.498"></stop><stop stop-color="#0f3054" offset="1"></stop></linearGradient><rect width="395.52" height="247.2" fill="url(#2be74abb-c3f9-46d4-83b9-3d84f82df0d8)" mask="url(#75147ea2-f0a1-4062-a5e5-30809f03d660)" data-fill-palette-color="primary"></rect><mask id="94071054-5482-493c-9d53-82e345f99b5b"><g id="SvgjsG1102"><svg viewBox="0 0 395.52 247.2" height="247.2" width="395.52"><g><svg></svg></g><g><svg viewBox="0 0 395.52 247.2" height="247.2" width="395.52"><g transform="matrix(1,0,0,1,92.86290138248849,47.215199999999996)"><svg viewBox="0 0 209.794197235023 152.7696" height="152.7696" width="209.794197235023"><g><svg viewBox="0 0 209.794197235023 152.7696" height="152.7696" width="209.794197235023"><g><svg viewBox="0 0 209.794197235023 152.7696" height="152.7696" width="209.794197235023"><g><svg viewBox="0 0 209.794197235023 152.7696" height="152.7696" width="209.794197235023"><g id="SvgjsG1101"><svg viewBox="0 0 209.794197235023 152.7696" height="152.7696" width="209.794197235023" id="SvgjsSvg1100"><g><svg viewBox="0 0 209.794197235023 152.7696" height="152.7696" width="209.794197235023"><g transform="matrix(1,0,0,1,0,0)"><svg width="209.794197235023" viewBox="4.65 -32.1 44.7 32.550000000000004" height="152.7696" data-palette-color="url(#2be74abb-c3f9-46d4-83b9-3d84f82df0d8)"></svg></g></svg></g></svg></g></svg></g></svg></g></svg></g></svg></g><g><path d="M0 123.6c0-68.262 55.338-123.6 123.6-123.6 30.402 0 58.24 10.976 79.768 29.183l-11.147 0c-19.26-14.022-42.974-22.294-68.621-22.295-64.458 0-116.712 52.254-116.712 116.712 0 64.458 52.254 116.712 116.712 116.712 25.647 0 49.361-8.272 68.621-22.295l11.147 0c-21.528 18.206-49.366 29.183-79.768 29.183-68.262 0-123.6-55.338-123.6-123.6z" fill="white" stroke="transparent"></path></g></svg></g><defs><mask></mask></defs><mask><g id="SvgjsG1099"><svg viewBox="0 0 395.52 247.2" height="247.2" width="395.52"><g><svg></svg></g><g><svg viewBox="0 0 395.52 247.2" height="247.2" width="395.52"><g transform="matrix(1,0,0,1,92.86290138248849,47.215199999999996)"><svg viewBox="0 0 209.794197235023 152.7696" height="152.7696" width="209.794197235023"><g><svg viewBox="0 0 209.794197235023 152.7696" height="152.7696" width="209.794197235023"><g><svg viewBox="0 0 209.794197235023 152.7696" height="152.7696" width="209.794197235023"><g><svg viewBox="0 0 209.794197235023 152.7696" height="152.7696" width="209.794197235023"><g id="SvgjsG1098"><svg viewBox="0 0 209.794197235023 152.7696" height="152.7696" width="209.794197235023" id="SvgjsSvg1097"><g><svg viewBox="0 0 209.794197235023 152.7696" height="152.7696" width="209.794197235023"><g transform="matrix(1,0,0,1,0,0)"><svg width="209.794197235023" viewBox="4.65 -32.1 44.7 32.550000000000004" height="152.7696" data-palette-color="url(#2be74abb-c3f9-46d4-83b9-3d84f82df0d8)"><path d="M17.7-12.95Q21-7.5 26-0.95L26-0.95 25.95-0.45Q24.15 0.25 22.25 0.45L22.25 0.45 21.7 0.1Q17.6-6.05 14.35-11.9L14.35-11.9 8.5-11.9 8.5-10 8.7 0 4.65 0 4.9-9.65 4.65-32.05 14.45-32.1Q19.15-32.1 21.73-29.73 24.3-27.35 24.3-22.95L24.3-22.95Q24.3-19.65 22.58-17.03 20.85-14.4 17.7-12.95L17.7-12.95ZM8.7-28.65L8.55-15.3 14.55-15.15Q20.15-16.75 20.15-22.6L20.15-22.6Q20.15-25.65 18.5-27.18 16.85-28.7 13.55-28.8L13.55-28.8 8.7-28.65ZM49.05-32.05L49.35-31.65 49.05-28.55 43.45-28.85 40.2-28.85 40.05-10 40.2 0 36.15 0 36.45-9.65 36.2-28.85 32.95-28.85 27.25-28.55 27-28.95 27.3-32.05 49.05-32.05Z" opacity="1" transform="matrix(1,0,0,1,0,0)" fill="black" class="wordmark-text-0" id="SvgjsPath1096"></path></svg></g></svg></g></svg></g></svg></g></svg></g></svg></g></svg></g><g><path d="M0 123.6c0-68.262 55.338-123.6 123.6-123.6 30.402 0 58.24 10.976 79.768 29.183l-11.147 0c-19.26-14.022-42.974-22.294-68.621-22.295-64.458 0-116.712 52.254-116.712 116.712 0 64.458 52.254 116.712 116.712 116.712 25.647 0 49.361-8.272 68.621-22.295l11.147 0c-21.528 18.206-49.366 29.183-79.768 29.183-68.262 0-123.6-55.338-123.6-123.6z" fill="black" stroke="transparent"></path></g></svg></g><defs><mask></mask></defs></svg><rect width="395.52" height="247.2" fill="black" stroke="none" visibility="hidden"></rect></g></mask></svg><rect width="395.52" height="247.2" fill="black" stroke="none" visibility="hidden"></rect></g></mask><linearGradient x1="0.054" x2="0.941" y1="0.5" y2="0.5" id="67a49532-b6e6-4eda-b3f6-d1f57d05a5fe"><stop stop-color="#0f3054" offset="0"></stop><stop stop-color="#3b8dcb" offset="0.498"></stop><stop stop-color="#0f3054" offset="1"></stop></linearGradient></svg><rect width="395.52" height="247.2" fill="none" stroke="none" visibility="hidden"></rect></g></svg></g></svg>